<?xml version="1.0" encoding="UTF-8" standalone="no"?>
<!-- Generator: Adobe Illustrator 26.0.3, SVG Export Plug-In . SVG Version: 6.00 Build 0)  -->

<svg
   version="1.1"
   x="0px"
   y="0px"
   viewBox="0 0 93.095001 36.800251"
   xml:space="preserve"
   id="svg38"
   width="93.095001"
   height="36.800251"
   xmlns="http://www.w3.org/2000/svg"
   xmlns:svg="http://www.w3.org/2000/svg"><defs
   id="defs38" />
<style
   type="text/css"
   id="style1">
	.st0{display:none;}
	.st1{display:inline;fill:#211C1C;}
	.st2{fill:#FFFFFF;}
	.st3{display:inline;}
        .st4{fill:#d70f3c;}
</style>


<rect
   class="st1"
   width="93.095001"
   height="36.800251"
   id="rect1"
   x="4.2785643e-08"
   y="8.1756593e-09"
   style="display:none;opacity:1;stroke-width:0.916139" /><g
   id="Ebene_1"
   style="display:inline"
   transform="translate(-6.904561,-3.1997497)">
	<g
   id="g17"
   style="display:inline">
		<g
   id="g2">
			<g
   id="g1">
				<polygon
   class="st4"
   points="11.8,8 11.8,15 9.7,15 9.7,6 18.8,6 18.8,8 "
   id="polygon1" />
			</g>
		</g>
		<g
   id="g10">
			<path
   class="st2"
   d="m 21.4,22.7 v 1.8 h -4.5 v 2.4 h 4 v 1.8 h -4 v 2.8 h 4.5 v 1.8 H 14.8 V 22.7 Z"
   id="path2" />
			<path
   class="st2"
   d="m 28.7,25.4 c -0.5,-0.7 -1,-1.1 -2.1,-1.1 -1,0 -1.5,0.4 -1.5,1.2 0,0.8 0.7,1.2 2.1,1.5 2.2,0.6 3.2,1.4 3.2,3.3 0,1.7 -1.2,3.1 -3.7,3.1 -1.9,0 -3.2,-0.5 -4.1,-1.7 l 1.7,-1.1 c 0.6,0.7 1.2,1.1 2.3,1.1 1.2,0 1.7,-0.5 1.7,-1.2 0,-0.7 -0.4,-1.1 -2.2,-1.6 C 24,28.3 23,27.3 23,25.5 c 0,-1.7 1.1,-3 3.6,-3 1.7,0 3,0.6 3.7,1.7 z"
   id="path3" />
			<path
   class="st2"
   d="m 37.9,25.4 c -0.5,-0.7 -1,-1.1 -2.1,-1.1 -1,0 -1.5,0.4 -1.5,1.2 0,0.8 0.7,1.2 2.1,1.5 2.2,0.6 3.2,1.4 3.2,3.3 0,1.7 -1.2,3.1 -3.7,3.1 -1.9,0 -3.2,-0.5 -4.1,-1.7 l 1.7,-1.1 c 0.6,0.7 1.2,1.1 2.3,1.1 1.2,0 1.7,-0.5 1.7,-1.2 0,-0.7 -0.4,-1.1 -2.2,-1.6 -2.1,-0.6 -3.1,-1.5 -3.1,-3.3 0,-1.7 1.1,-3 3.6,-3 1.7,0 3,0.6 3.7,1.7 z"
   id="path4" />
			<path
   class="st2"
   d="m 43.7,31.5 h 4.5 v 1.8 H 41.6 V 22.7 h 2.2 v 8.8 z"
   id="path5" />
			<path
   class="st2"
   d="M 51.9,33.3 H 49.7 V 22.7 h 2.2 z"
   id="path6" />
			<path
   class="st2"
   d="m 62.4,22.7 v 10.6 h -1.8 l -4.1,-6.6 v 6.6 H 54.4 V 22.7 h 1.8 l 4.2,6.7 v -6.7 z"
   id="path7" />
			<path
   class="st2"
   d="m 72.5,27.8 v 1 c 0,3.2 -1.5,4.7 -3.9,4.7 -2.4,0 -4.1,-1.4 -4.1,-4.7 v -1.3 c 0,-3.4 1.7,-4.8 4.1,-4.8 2.2,0 3.6,1.3 3.9,3.4 h -2.1 c -0.2,-1 -0.8,-1.6 -1.8,-1.6 -1.2,0 -1.9,0.8 -1.9,2.9 v 1.5 c 0,2 0.7,2.9 1.9,2.9 1.2,0 1.7,-0.8 1.8,-2 H 68.6 V 28 Z"
   id="path8" />
			<path
   class="st2"
   d="m 81.2,22.7 v 1.8 h -4.5 v 2.4 h 4 v 1.8 h -4 v 2.8 h 4.5 v 1.8 H 74.6 V 22.7 Z"
   id="path9" />
			<path
   class="st2"
   d="m 91,22.7 v 10.6 h -1.8 l -4.1,-6.6 v 6.6 H 83 V 22.7 h 1.8 l 4.2,6.7 v -6.7 z"
   id="path10" />
		</g>
		<g
   id="g16">
			<polygon
   class="st2"
   stroke="#ffffff"
   stroke-width="0.4"
   points="15.5,19.8 15.5,15.6 19.8,15.6 19.8,19.8 20.6,19.8 20.6,11 19.8,11 19.8,14.9 15.5,14.9 15.5,11 14.8,11 14.8,19.8 "
   id="polygon10" />
			<path
   class="st2"
   stroke="#ffffff"
   stroke-width="0.4"
   d="m 25.6,10.9 c -1.9,0 -3.1,1.2 -3.1,3.9 v 1 c 0,2.8 1.2,3.9 3.1,3.9 1.9,0 3.1,-1.2 3.1,-3.9 v -1 c 0,-2.7 -1.2,-3.9 -3.1,-3.9 z m 2.4,5 c 0,2.4 -0.9,3.2 -2.4,3.2 -1.5,0 -2.4,-0.9 -2.4,-3.2 v -1 c 0,-2.4 0.9,-3.2 2.4,-3.2 1.5,0 2.4,0.9 2.4,3.2 z"
   id="path11" />
			<path
   class="st2"
   stroke="#ffffff"
   stroke-width="0.4"
   d="m 33.8,11.6 c 1.2,0 2.1,0.6 2.4,2 h 0.7 c -0.3,-1.9 -1.5,-2.7 -3.1,-2.7 -1.9,0 -3.1,1.1 -3.1,3.9 v 1 c 0,2.8 1.2,3.9 3.1,3.9 1.5,0 2.8,-0.8 3.1,-2.7 h -0.7 c -0.3,1.4 -1.1,2.1 -2.4,2.1 -1.5,0 -2.4,-0.8 -2.4,-3.2 v -1 c 0,-2.4 0.9,-3.3 2.4,-3.3 z"
   id="path12" />
			<polygon
   class="st2"
   stroke="#ffffff"
   stroke-width="0.4"
   points="39.5,19.8 39.5,15.6 43.9,15.6 43.9,19.8 44.6,19.8 44.6,11 43.9,11 43.9,14.9 39.5,14.9 39.5,11 38.8,11 38.8,19.8 "
   id="polygon12" />
			<path
   class="st2"
   stroke="#ffffff"
   stroke-width="0.4"
   d="m 49.8,15 c -1.3,-0.3 -2.3,-0.6 -2.3,-1.9 0,-1.1 0.8,-1.6 2,-1.6 1.2,0 1.8,0.5 2.3,1.2 l 0.6,-0.4 c -0.6,-1 -1.5,-1.4 -2.8,-1.4 -2,0 -2.8,1 -2.8,2.3 0,1.6 1.1,2.2 2.7,2.5 1.7,0.3 2.3,0.8 2.3,1.9 0,0.8 -0.6,1.6 -2.1,1.6 -1.3,0 -1.9,-0.5 -2.5,-1.2 l -0.6,0.4 c 0.6,1 1.7,1.4 3.1,1.4 2.1,0 2.9,-1.2 2.9,-2.3 -0.1,-1.6 -1.2,-2.1 -2.8,-2.5 z"
   id="path13" />
			<path
   class="st2"
   stroke="#ffffff"
   stroke-width="0.4"
   d="m 57.2,11.6 c 1.2,0 2.1,0.6 2.4,2 h 0.7 c -0.3,-1.9 -1.5,-2.7 -3.1,-2.7 -1.9,0 -3.1,1.1 -3.1,3.9 v 1 c 0,2.8 1.2,3.9 3.1,3.9 1.5,0 2.8,-0.8 3.1,-2.7 h -0.7 c -0.3,1.4 -1.1,2.1 -2.4,2.1 -1.5,0 -2.4,-0.8 -2.4,-3.2 v -1 c 0,-2.4 0.9,-3.3 2.4,-3.3 z"
   id="path14" />
			<polygon
   class="st2"
   stroke="#ffffff"
   stroke-width="0.4"
   points="62.9,19.8 62.9,15.6 67.2,15.6 67.2,19.8 67.9,19.8 67.9,11 67.2,11 67.2,14.9 62.9,14.9 62.9,11 62.2,11 62.2,19.8 "
   id="polygon14" />
			<path
   class="st2"
   stroke="#ffffff"
   stroke-width="0.4"
   d="m 76,16.2 c 0,2 -0.8,3 -2.4,3 -1.5,0 -2.4,-0.9 -2.4,-3 V 11 h -0.7 v 5.2 c 0,2.6 1.2,3.6 3.1,3.6 1.9,0 3.1,-1.1 3.1,-3.6 V 11 H 76 Z"
   id="path15" />
			<polygon
   class="st2"
   stroke="#ffffff"
   stroke-width="0.4"
   points="79.8,19.1 79.8,11 79.1,11 79.1,19.8 84.2,19.8 84.2,19.1 "
   id="polygon15" />
			<polygon
   class="st2"
   stroke="#ffffff"
   stroke-width="0.4"
   points="91,19.1 86.6,19.1 86.6,15.6 90.6,15.6 90.6,14.9 86.6,14.9 86.6,11.7 91,11.7 91,11 85.8,11 85.8,19.8 91,19.8 "
   id="polygon16" />
		</g>
	</g>
</g>

</svg>
